<svg width="1200" height="800" viewBox="0 0 1200 800" fill="none" xmlns="http://www.w3.org/2000/svg">
  <defs>
    <linearGradient id="bg" x1="0" y1="0" x2="1200" y2="800" gradientUnits="userSpaceOnUse">
      <stop stop-color="#020617"/>
      <stop offset="1" stop-color="#0B1120"/>
    </linearGradient>
    <radialGradient id="glow1" cx="0" cy="0" r="1" gradientUnits="userSpaceOnUse" gradientTransform="translate(280 220) rotate(27) scale(360 280)">
      <stop stop-color="#22D3EE" stop-opacity="0.62"/>
      <stop offset="1" stop-color="#22D3EE" stop-opacity="0"/>
    </radialGradient>
    <radialGradient id="glow2" cx="0" cy="0" r="1" gradientUnits="userSpaceOnUse" gradientTransform="translate(920 240) rotate(143) scale(370 300)">
      <stop stop-color="#818CF8" stop-opacity="0.58"/>
      <stop offset="1" stop-color="#818CF8" stop-opacity="0"/>
    </radialGradient>
    <radialGradient id="glow3" cx="0" cy="0" r="1" gradientUnits="userSpaceOnUse" gradientTransform="translate(620 660) rotate(90) scale(260 420)">
      <stop stop-color="#D946EF" stop-opacity="0.46"/>
      <stop offset="1" stop-color="#D946EF" stop-opacity="0"/>
    </radialGradient>
    <linearGradient id="line" x1="188" y1="180" x2="1025" y2="180" gradientUnits="userSpaceOnUse">
      <stop stop-color="#22D3EE"/>
      <stop offset="0.5" stop-color="#818CF8"/>
      <stop offset="1" stop-color="#D946EF"/>
    </linearGradient>
  </defs>

  <rect width="1200" height="800" fill="url(#bg)"/>
  <rect width="1200" height="800" fill="url(#glow1)"/>
  <rect width="1200" height="800" fill="url(#glow2)"/>
  <rect width="1200" height="800" fill="url(#glow3)"/>

  <rect x="132" y="128" width="936" height="544" rx="28" fill="#060D1C" stroke="#334155" stroke-opacity="0.8"/>
  <rect x="160" y="160" width="272" height="480" rx="18" fill="#0A1327" stroke="#334155" stroke-opacity="0.7"/>
  <rect x="456" y="160" width="584" height="480" rx="18" fill="#040A16" stroke="#334155" stroke-opacity="0.7"/>

  <rect x="188" y="202" width="214" height="14" rx="7" fill="#0F172A"/>
  <rect x="188" y="226" width="164" height="10" rx="5" fill="#1E293B"/>
  <rect x="188" y="278" width="214" height="44" rx="12" fill="#06B6D4" fill-opacity="0.14" stroke="#22D3EE" stroke-opacity="0.45"/>
  <rect x="188" y="334" width="214" height="44" rx="12" fill="#0F172A" stroke="#334155"/>
  <rect x="188" y="390" width="214" height="44" rx="12" fill="#0F172A" stroke="#334155"/>

  <rect x="488" y="194" width="200" height="16" rx="8" fill="url(#line)" fill-opacity="0.95"/>
  <rect x="488" y="228" width="390" height="10" rx="5" fill="#334155"/>
  <rect x="488" y="270" width="408" height="80" rx="18" fill="#22D3EE" fill-opacity="0.12" stroke="#22D3EE" stroke-opacity="0.5"/>
  <rect x="518" y="298" width="290" height="10" rx="5" fill="#CFFAFE"/>
  <rect x="688" y="378" width="324" height="80" rx="18" fill="#818CF8" fill-opacity="0.12" stroke="#818CF8" stroke-opacity="0.5"/>
  <rect x="718" y="406" width="240" height="10" rx="5" fill="#E0E7FF"/>
  <rect x="488" y="486" width="440" height="70" rx="14" fill="#0F172A" stroke="#334155"/>
  <rect x="510" y="512" width="350" height="12" rx="6" fill="#475569"/>

  <circle cx="1040" cy="168" r="8" fill="#22D3EE"/>
  <circle cx="1012" cy="168" r="8" fill="#818CF8"/>
  <circle cx="984" cy="168" r="8" fill="#D946EF"/>
</svg>
